<svg width="19" height="19" viewBox="0 0 19 19" fill="none" xmlns="http://www.w3.org/2000/svg">
<g id="Business / light bulb">
<path id="Vector" d="M13.5296 2.23287C12.8015 1.63404 11.9489 1.20531 11.034 0.977954C10.1191 0.750599 9.165 0.730357 8.24128 0.918703C7.01133 1.16715 5.8829 1.77534 4.99916 2.66613C4.11542 3.55692 3.5162 4.69015 3.27754 5.92204C3.10325 6.84569 3.13492 7.79642 3.37029 8.70643C3.60566 9.61644 4.03893 10.4633 4.6392 11.1866C5.19629 11.8153 5.5156 12.6192 5.5417 13.4587V15.8337C5.5417 16.4636 5.79192 17.0677 6.23732 17.5131C6.68272 17.9585 7.28681 18.2087 7.9167 18.2087H11.0834C11.7133 18.2087 12.3173 17.9585 12.7627 17.5131C13.2081 17.0677 13.4584 16.4636 13.4584 15.8337V13.6091C13.4849 12.6822 13.8255 11.7918 14.4242 11.0837C15.4733 9.78599 15.9678 8.12669 15.8003 6.46641C15.6327 4.80613 14.8168 3.27905 13.5296 2.21704V2.23287ZM11.875 15.8337C11.875 16.0437 11.7916 16.245 11.6432 16.3935C11.4947 16.542 11.2933 16.6254 11.0834 16.6254H7.9167C7.70674 16.6254 7.50538 16.542 7.35691 16.3935C7.20844 16.245 7.12504 16.0437 7.12504 15.8337V15.042H11.875V15.8337ZM13.1971 10.102C12.4011 11.0462 11.9367 12.2253 11.875 13.4587H10.2917V11.0837C10.2917 10.8737 10.2083 10.6724 10.0598 10.5239C9.91136 10.3754 9.71 10.292 9.50003 10.292C9.29007 10.292 9.08871 10.3754 8.94024 10.5239C8.79178 10.6724 8.70837 10.8737 8.70837 11.0837V13.4587H7.12504C7.10415 12.2459 6.65553 11.0796 5.85837 10.1654C5.33242 9.5352 4.97874 8.7795 4.83182 7.97194C4.6849 7.16438 4.74976 6.33253 5.02006 5.5575C5.29037 4.78247 5.75689 4.09071 6.37416 3.54967C6.99142 3.00863 7.73835 2.63678 8.54212 2.47037C9.23289 2.32814 9.94666 2.34152 10.6316 2.50953C11.3166 2.67755 11.9555 2.99598 12.5021 3.44171C13.0486 3.88744 13.4891 4.44928 13.7914 5.08645C14.0938 5.72361 14.2504 6.42011 14.25 7.12537C14.2559 8.20984 13.8836 9.26245 13.1971 10.102Z" fill="#00458D"/>
</g>
</svg>
