<?xml version="1.0" encoding="utf-8"?>
<!-- Generator: Adobe Illustrator 27.5.0, SVG Export Plug-In . SVG Version: 6.00 Build 0)  -->
<svg version="1.1" id="Capa_1" xmlns="http://www.w3.org/2000/svg" xmlns:xlink="http://www.w3.org/1999/xlink" x="0px" y="0px"
	 viewBox="0 0 2122 2122" style="enable-background:new 0 0 2122 2122;" xml:space="preserve">
<ellipse transform="matrix(0.7071 -0.7071 0.7071 0.7071 -442.0941 1054.0128)" style="fill:#375492;" cx="1051.259" cy="1060.661" rx="924.543" ry="924.543"/>
<circle style="fill:#4664AC;" cx="1053.371" cy="1058.55" r="837.532"/>
<path style="fill:#D5DCF1;" d="M1053.376,329.661c-226.596,0-436.421,102.704-575.67,281.773l-0.431,0.553l-0.078,0.694
	c-17.937,155.995-9.491,301.193,25.106,431.566l0.492,1.854h24.665c8.029,0,14.56,6.531,14.56,14.56
	c0,8.027-6.531,14.558-14.56,14.558h-16.327l0.991,3.228c74.855,243.729,243.518,428.084,501.305,547.946l3.547,1.646v-45.915
	c0-8.027,6.531-14.558,14.56-14.558c8.027,0,14.557,6.531,14.557,14.558v58.894l1.508,0.651
	c85.423,36.755,180.952,67.14,283.934,90.312l0.775,0.173l0.731-0.302c272.889-113.462,449.217-377.751,449.217-673.31
	C1782.26,656.635,1455.283,329.661,1053.376,329.661z"/>
<path style="fill:#B3BFE3;" d="M1332.221,1728.938c-102.797-23.128-198.141-53.454-283.385-90.134
	c-0.186-0.078-0.41-0.063-0.59,0.051c-0.176,0.117-0.28,0.312-0.28,0.521v66.012c0,9.06-7.369,16.431-16.428,16.431
	c-9.06,0-16.431-7.371-16.431-16.431v-81.259c0-0.244-0.141-0.463-0.361-0.565c-256.952-119.471-425.056-303.184-499.639-546.033
	c-0.08-0.263-0.324-0.441-0.597-0.441H404.196c-9.06,0-16.431-7.369-16.431-16.429c0-9.06,7.371-16.431,16.431-16.431h100.519
	c0.193,0,0.375-0.09,0.494-0.244c0.117-0.153,0.158-0.353,0.107-0.541c-34.495-129.992-42.914-274.801-25.023-430.408
	c0.031-0.278-0.124-0.543-0.383-0.648c-0.26-0.102-0.551-0.027-0.728,0.194c-48.572,62.422-86.37,131.769-112.346,206.119
	c-26.869,76.906-40.494,157.6-40.494,239.839c0,98.151,19.223,193.366,57.135,283.001c36.618,86.575,89.043,164.326,155.812,231.096
	c66.77,66.768,144.521,119.189,231.096,155.805c89.632,37.91,184.845,57.133,282.991,57.133c96.624,0,190.475-18.658,278.947-55.454
	c0.251-0.102,0.407-0.358,0.383-0.629S1332.487,1728.999,1332.221,1728.938z M715.35,1470.914l-78.029,95.423
	c-5.734,7.016-16.107,8.051-23.121,2.319c-3.384-2.767-5.488-6.704-5.927-11.084c-0.441-4.38,0.841-8.655,3.608-12.036
	l78.029-95.422c2.765-3.384,6.701-5.488,11.082-5.927c0.565-0.056,1.126-0.085,1.686-0.085c3.781,0,7.405,1.284,10.353,3.693
	c3.383,2.765,5.488,6.702,5.926,11.082C719.396,1463.255,718.115,1467.53,715.35,1470.914z"/>
<g>
	<path style="fill:#21417A;" d="M1031.535,643.86c-4.914,0.003-8.794,3.403-9.44,8.273l-54.899,413.536l4.616-3.16
		c17.642-12.07,38.292-18.45,59.725-18.45s42.083,6.38,59.722,18.45l4.616,3.16l-54.897-413.536
		C1040.332,647.263,1036.448,643.86,1031.535,643.86z"/>
	<path style="fill:#21417A;" d="M1397.571,1049.056c-1.571-5.184-6.74-10.234-14.372-9.094l-271.515,40.684l2.694,3.381
		c15.084,18.931,23.057,41.73,23.057,65.932c0,10.589-1.566,21.062-4.658,31.123l-1.654,5.386l259.529-121.878
		C1397.641,1061.309,1399.137,1054.237,1397.571,1049.056z"/>
</g>
<path style="fill:#EA524C;" d="M1118.28,1080.919c-6.94-8.706-15.084-16.285-24.205-22.526
	c-18.47-12.64-40.097-19.323-62.538-19.323c-22.441,0-44.068,6.682-62.541,19.323c-30.275,20.716-48.348,54.948-48.348,91.567
	c0,61.145,49.744,110.889,110.889,110.889c49.025,0,91.63-31.466,106.009-78.299c3.235-10.538,4.877-21.503,4.877-32.589
	C1142.424,1124.617,1134.075,1100.741,1118.28,1080.919z"/>
<path style="fill:#EF8686;" d="M1028.288,1202.988l-1.573-2.877c-6.424-11.737-12.492-22.823-16.056-35.859
	c-4.173-15.271-6.336-32.431-6.808-53.995l-0.022-1.019c-0.134-6.367-0.273-12.952-2.326-19.235
	c-2.56-7.825-7.964-13.664-14.453-15.625c-10.685-3.23-21.155,4.076-27.406,11.986c-10.29,13.011-15.698,30.713-16.075,52.616
	c-0.322,18.831,2.981,35.525,9.824,49.622c6.838,14.092,25.864,36.986,46.755,43.766c3.922,1.274,7.703,1.91,11.325,1.91
	c4.838,0,9.396-1.135,13.625-3.398c4.217-2.259,6.896-5.211,7.961-8.78C1034.904,1215.916,1031.713,1209.268,1028.288,1202.988z"/>
<g>
	<path style="fill:#1B3662;" d="M1031.537,371.542c-10.78,0-19.549,8.77-19.549,19.549v123.264c0,10.779,8.77,19.549,19.549,19.549
		c10.777,0,19.547-8.77,19.547-19.549V391.091C1051.084,380.311,1042.314,371.542,1031.537,371.542z"/>
	<path style="fill:#1B3662;" d="M1031.537,1562.577c-10.78,0-19.549,8.77-19.549,19.547v123.264c0,10.78,8.77,19.549,19.549,19.549
		c10.777,0,19.547-8.77,19.547-19.549v-123.264C1051.084,1571.347,1042.314,1562.577,1031.537,1562.577z"/>
	<path style="fill:#1B3662;" d="M687.496,1448.139l-78.029,95.423c-3.294,4.026-4.821,9.113-4.298,14.321
		c0.521,5.209,3.028,9.89,7.057,13.187c3.625,2.964,8.002,4.407,12.355,4.407c5.667,0,11.291-2.448,15.153-7.167l78.029-95.423
		c6.823-8.346,5.586-20.684-2.76-27.508C706.666,1438.558,694.324,1439.796,687.496,1448.139z"/>
	<path style="fill:#1B3662;" d="M1459.291,535.19c-8.343-6.821-20.68-5.583-27.508,2.76l-78.029,95.422
		c-6.823,8.346-5.586,20.685,2.76,27.508c3.625,2.964,8.004,4.407,12.358,4.407c5.666,0,11.291-2.448,15.15-7.167l78.029-95.423
		c3.293-4.027,4.821-9.113,4.297-14.322C1465.827,543.169,1463.32,538.487,1459.291,535.19z"/>
	<path style="fill:#1B3662;" d="M527.46,1041.112H404.196c-10.779,0-19.549,8.77-19.549,19.549c0,10.777,8.77,19.547,19.549,19.547
		H527.46c10.779,0,19.549-8.77,19.549-19.547C547.009,1049.882,538.24,1041.112,527.46,1041.112z"/>
	<path style="fill:#1B3662;" d="M1692.883,1041.112h-123.264c-10.779,0-19.549,8.77-19.549,19.549
		c0,10.777,8.77,19.547,19.549,19.547h123.264c10.78,0,19.549-8.77,19.549-19.547
		C1712.433,1049.882,1703.663,1041.112,1692.883,1041.112z"/>
	<path style="fill:#1B3662;" d="M1353.61,1463.199c-6.821-8.346-19.159-9.576-27.508-2.76c-8.346,6.826-9.583,19.164-2.76,27.508
		l78.029,95.422c3.861,4.721,9.486,7.167,15.152,7.167c4.353,0,8.731-1.444,12.355-4.407c4.03-3.293,6.536-7.976,7.057-13.184
		c0.524-5.211-1.004-10.297-4.297-14.324L1353.61,1463.199z"/>
	<path style="fill:#1B3662;" d="M685.813,696.954c4.353,0,8.733-1.445,12.358-4.407c8.346-6.823,9.583-19.162,2.76-27.508
		l-78.03-95.423c-6.823-8.346-19.164-9.581-27.507-2.76c-8.346,6.826-9.583,19.164-2.76,27.508l78.029,95.422
		C674.522,694.508,680.147,696.954,685.813,696.954z"/>
</g>
</svg>
