<svg width="84" height="84" viewBox="0 0 84 84" fill="none" xmlns="http://www.w3.org/2000/svg">
<circle cx="42" cy="42" r="42" fill="#D7D7D7" fill-opacity="0.2"/>
<path d="M41.5 39C45.0899 39 48 36.0899 48 32.5C48 28.9101 45.0899 26 41.5 26C37.9101 26 35 28.9101 35 32.5C35 36.0899 37.9101 39 41.5 39Z" stroke="#D9D9D9" stroke-width="2"/>
<path d="M59 38.5H56M56 38.5H53M56 38.5V35M56 38.5V42" stroke="#D9D9D9" stroke-width="2" stroke-linecap="round"/>
<path d="M53.9961 51.3333C54 51.0597 54 50.7817 54 50.5C54 46.3578 48.4036 43 41.5 43C34.5964 43 29 46.3578 29 50.5C29 54.6422 29 58 41.5 58C44.9859 58 47.4997 57.7388 49.3125 57.2723" stroke="#D9D9D9" stroke-width="2" stroke-linecap="round"/>
<path fill-rule="evenodd" clip-rule="evenodd" d="M76.5 67.0714H75.6964L75.4286 66.5357C75.2708 66.2242 75.1886 66 74.8929 66H71.6786C71.3829 66 71.2848 66.2555 71.1429 66.5357L70.875 67.0714H70.0714C69.4797 67.0714 69 67.5512 69 68.1429V72.4286C69 73.0203 69.4797 73.5 70.0714 73.5H76.5C77.0917 73.5 77.5714 73.0203 77.5714 72.4286V68.1429C77.5714 67.5512 77.0917 67.0714 76.5 67.0714ZM73.2857 72.4286C72.1023 72.4286 71.1429 71.4691 71.1429 70.2857C71.1429 69.1023 72.1023 68.1429 73.2857 68.1429C74.4691 68.1429 75.4286 69.1023 75.4286 70.2857C75.4286 71.4691 74.4691 72.4286 73.2857 72.4286ZM73.2857 68.6786C72.3983 68.6786 71.6786 69.3983 71.6786 70.2857C71.6786 71.1731 72.3983 71.8929 73.2857 71.8929C74.1731 71.8929 74.8929 71.1731 74.8929 70.2857C74.8929 69.3983 74.1731 68.6786 73.2857 68.6786Z" fill="white"/>
</svg>
